<svg xmlns="http://www.w3.org/2000/svg" viewBox="0 0 546.01 53.44"><defs><style>.a{fill:#fff;}</style></defs><title>logo-no-monogram</title><path class="a" d="M68.55.76V3.64c-1.74,0-3.11.61-3.11,2.43V47a2.8,2.8,0,0,0,3.11,2.81v2.89H50.33V49.8c2.81,0,4.25-1,4.25-2.81V17.38h-.91L34.39,52.69H33L14.12,17.23h-.91V47c0,1.82,1.37,2.81,4.33,2.81v2.89H0V49.8c1.75,0,3.11-1,3.11-2.81V6.07C3.11,4.25,1.75,3.64,0,3.64V.76H12.37a7.26,7.26,0,0,1,6.53,4l15,29h.38l15.34-29A7.06,7.06,0,0,1,56.1.76Z"/><path class="a" d="M140.52,26.72c0,19.13-16.09,26.72-31.58,26.72S77.36,45.85,77.36,26.72,93.46,0,108.94,0s31.58,7.59,31.58,26.72m-51.69,0c0,11.92,9.26,17.08,20.11,17.08s20.12-5.16,20.12-17.08S119.8,9.64,108.94,9.64,88.83,14.8,88.83,26.72"/><path class="a" d="M159.69.76a4,4,0,0,1,4,4.1V43.58h27.63c3.19,0,5.46-1.52,5.46-4.1h2.89V52.69H149.37V49.8A2.8,2.8,0,0,0,152.48,47V6.07c0-1.82-1.37-2.43-3.11-2.43V.76Z"/><path class="a" d="M247.74,30.29H221.55V43.58h29.23c4.48,0,6-1.22,6-3.5h2.88V52.69H207.2V49.8c1.75,0,3.12-1,3.12-2.81V6.07c0-1.82-1.37-2.43-3.12-2.43V.76h51.85V12.83h-2.8c0-2.28-1.6-3.57-6.08-3.57H221.55V21.79h26.19Z"/><path class="a" d="M293.26,44.18c4.33,0,15.94-.38,15.94-6.3s-6.91-5.16-13.59-6l-5.39-.69c-10.85-1.44-21.1-2.81-21.1-14.5,0-9.41,7.59-16.55,24.06-16.55a58.62,58.62,0,0,1,26,6.68l-5.85,11L311,17.16a3.92,3.92,0,0,0-1.67-4c-3.94-3.18-13-4.48-15.94-4.48-7.44,0-13.13,2.21-13.13,6.53,0,3.72,2.65,4.71,7.29,5.32l9.26,1.21c11.23,1.44,23.61,2.13,23.61,14.58,0,14.42-15.72,17-26.95,17-15.87,0-25.21-6.83-25.21-6.83L272.38,36l2.13.61c.15,1.52.3,2.89,2.2,3.87,4,2,12.15,3.72,16.55,3.72"/><path class="a" d="M343.79,27,372.11.76H385.4V3.64c-2,0-3.27,1-5,2.36L362.62,22.32l15.56,19.81c3.95,5.17,4.79,6.53,8.89,7.67v2.89h-9.95a8.92,8.92,0,0,1-7.29-3.88l-15.1-19.28-10.94,10V47c0,1.82,1.37,2.81,4.33,2.81v2.89H329.37V49.8c1.75,0,3.11-1,3.11-2.81V6.07c0-1.82-1.36-2.43-3.11-2.43V.76h10.32a4.08,4.08,0,0,1,4.1,4.1Z"/><path class="a" d="M408.68,47c0,1.82,1.37,2.81,3.12,2.81v2.89H394.26V49.8c1.75,0,3.19-1,3.19-2.81V6.07c0-1.82-1.44-2.43-3.19-2.43V.76h10.4a4.06,4.06,0,0,1,4,4.1Z"/><path class="a" d="M435.34,16.4V47c0,1.82,1.37,2.81,4.33,2.81v2.89h-18V49.8c1.82,0,3.19-1,3.19-2.81V6.07c0-1.82-1.37-2.43-3.19-2.43V.76h8.81a12.33,12.33,0,0,1,9.1,4.1l29.76,30.82V6.53c0-1.9-1.36-2.89-4.32-2.89V.76h18V3.64c-1.82,0-3.19.61-3.19,2.43V47c0,1.82,1.37,2.81,3.19,2.81v2.89h-7.74a12.42,12.42,0,0,1-9-4Z"/><path class="a" d="M534.09,30.29H507.9V43.58h29.23c4.48,0,6-1.22,6-3.5H546V52.69H493.56V49.8A2.8,2.8,0,0,0,496.67,47V6.07c0-1.82-1.37-2.43-3.11-2.43V.76H545.4V12.83h-2.8c0-2.28-1.6-3.57-6.08-3.57H507.9V21.79h26.19Z"/></svg>